<svg width="260" height="260" viewBox="414.5 0 260 290" fill="none" xmlns="http://www.w3.org/2000/svg">
    <g transform="scale(3.5)">
        <path d="M169.72 32.7658L155.911 27.6851L142.1 32.7658L142.101 50.5252L155.911 55.6057L169.72 50.5252V32.7658Z"
              fill="black"/>
        <path d="M197.636 5.09053L197.639 5.08914L183.73 0.0630493L169.82 5.08914L155.909 0.0630493L141.994 5.09053L128.088 0.0630493L114.178 5.08914V22.6575L128.088 27.6834L141.999 22.6575L155.909 27.6834L169.82 22.6575L183.73 27.6834L197.639 22.6575V5.08914L197.636 5.09053Z"
              fill="#0096AA"/>
        <path d="M142.098 5.01602L128.139 9.97037L114.178 5.01602L128.139 0.0630493L142.098 5.01602Z" fill="black"/>
        <path d="M169.719 5.01602L155.76 9.97037L141.799 5.01602L155.76 0.0630493L169.719 5.01602Z" fill="black"/>
        <path d="M197.639 5.01602L183.678 9.97037L169.719 5.01602L183.678 0.0630493L197.639 5.01602Z" fill="black"/>
        <path d="M169.717 32.7881L155.908 37.8621L142.1 32.7867V50.5265L155.91 55.6035L169.72 50.5265L169.717 32.7881Z"
              fill="#0096AA"/>
        <path d="M169.72 60.6852L155.911 55.6046L142.1 60.6852L142.101 78.4445L155.911 83.5252L169.72 78.4445V60.6852Z"
              fill="black"/>
        <path d="M169.717 60.7075L155.908 65.7817L142.1 60.7061V78.4474L155.91 83.523L169.72 78.4474L169.717 60.7075Z"
              fill="#0096AA"/>
        <path d="M142.178 41.7868C134.446 41.7868 128.178 48.0546 128.178 55.7867C128.178 48.0546 121.91 41.7868 114.178 41.7868C121.91 41.7868 128.178 35.5187 128.178 27.7867C128.178 35.5187 134.446 41.7868 142.178 41.7868Z"
              fill="black"/>
        <path d="M142.178 69.7868C134.446 69.7868 128.178 76.0546 128.178 83.7867C128.178 76.0546 121.91 69.7868 114.178 69.7868C121.91 69.7868 128.178 63.5187 128.178 55.7867C128.178 63.5187 134.446 69.7868 142.178 69.7868Z"
              fill="black"/>
        <path d="M197.72 41.7868C189.988 41.7868 183.72 48.0546 183.72 55.7867C183.72 48.0546 177.452 41.7868 169.72 41.7868C177.452 41.7868 183.72 35.5187 183.72 27.7867C183.72 35.5187 189.988 41.7868 197.72 41.7868Z"
              fill="black"/>
        <path d="M197.72 69.7868C189.988 69.7868 183.72 76.0546 183.72 83.7867C183.72 76.0546 177.452 69.7868 169.72 69.7868C177.452 69.7868 183.72 63.5187 183.72 55.7867C183.72 63.5187 189.988 69.7868 197.72 69.7868Z"
              fill="black"/>
    </g>
</svg>
