<svg width="428" height="85" viewBox="0 0 428 85" fill="none" xmlns="http://www.w3.org/2000/svg">
<path d="M128.178 39.5239H123.03V35.4319H134.316V30.7789H118.014V53.6809H128.178C133.128 53.6809 136.098 50.7439 136.098 46.5199C136.098 41.9659 132.897 39.5239 128.178 39.5239ZM123.03 49.3579V43.5169H127.551C129.63 43.5169 130.95 44.5729 130.95 46.3879C130.95 48.1699 129.63 49.3579 127.551 49.3579H123.03Z" fill="white"/>
<path d="M147.511 30.7789H142.528V53.6809H147.544L158.269 38.3029V53.6809H163.252V30.7789H158.203L147.511 46.0579V30.7789Z" fill="white"/>
<path d="M183.565 41.7019C185.578 41.0749 187.624 39.4909 187.624 36.6529C187.624 32.9239 184.39 30.4489 179.143 30.4489C174.226 30.4489 170.893 32.5939 169.507 35.2009L172.708 38.1379C173.962 36.0919 176.338 34.9699 178.912 34.9699C180.991 34.9699 182.476 35.7619 182.476 37.2799C182.476 39.0619 180.661 39.7879 178.483 39.7879H175.282V44.2429H179.011C181.222 44.2429 183.103 44.9359 183.103 46.7509C183.103 48.5659 181.156 49.4899 179.011 49.4899C176.206 49.4899 173.896 48.3349 172.609 46.2559L169.342 49.2259C170.629 51.7009 173.797 54.0109 179.209 54.0109C184.357 54.0109 188.383 51.3379 188.383 47.1469C188.383 43.9459 185.776 42.2629 183.565 41.7019Z" fill="white"/>
<path d="M210.709 30.7789V39.7549H200.182V30.7789H195.133V53.6809H200.182V44.3749H210.709V53.6809H215.725V30.7789H210.709Z" fill="white"/>
<path d="M224.094 53.6809H241.584V49.0609H229.143V44.3089H237.822V39.8539H229.143V35.3989H241.452V30.7789H224.094V53.6809Z" fill="white"/>
<path d="M264.242 38.5009L267.839 35.3989C266.585 33.3199 263.516 30.4489 258.104 30.4489C251.735 30.4489 245.993 35.1679 245.993 42.2299C245.993 49.2919 251.306 54.0109 258.137 54.0109C263.318 54.0109 266.585 51.1399 267.839 49.0609L264.242 45.9589C263.054 47.5759 261.239 49.2259 258.17 49.2259C254.243 49.2259 251.174 46.3549 251.174 42.2299C251.174 38.1049 254.243 35.2339 258.17 35.2339C261.239 35.2339 263.054 36.8839 264.242 38.5009Z" fill="white"/>
<path d="M280.905 41.6029H270.741V46.0909H280.905V41.6029Z" fill="white"/>
<path d="M288.033 53.6809H317.205V30.7789H312.189V49.0279H305.127V30.7789H300.111V49.0279H293.049V30.7789H288.033V53.6809Z" fill="white"/>
<path d="M330.616 53.6809V30.7789H325.567V53.6809H330.616ZM330.616 40.9429L339.988 53.6809H345.928L336.457 40.7449L344.476 30.7789H338.899L330.616 40.9429Z" fill="white"/>
<path d="M359.995 49.2259C356.068 49.2259 353.065 46.2229 353.065 42.2299C353.065 38.2369 356.068 35.2339 359.995 35.2339C363.889 35.2339 366.892 38.2699 366.892 42.2299C366.892 46.1899 363.889 49.2259 359.995 49.2259ZM347.884 42.2299C347.884 48.9949 353.032 54.0109 359.995 54.0109C366.925 54.0109 372.073 48.9949 372.073 42.2299C372.073 35.4649 366.925 30.4489 359.995 30.4489C353.032 30.4489 347.884 35.4649 347.884 42.2299Z" fill="white"/>
<path d="M377.31 53.8459C382.524 53.8459 384.603 50.6779 384.603 45.9259V35.3989H392.589V53.6809H397.605V30.7789H379.785V45.5959C379.785 48.2689 378.762 49.2259 376.749 49.2259H375.462V53.8459H377.31Z" fill="white"/>
<path d="M403.3 53.6809H408.514L410.263 49.3249H420.262L421.978 53.6809H427.357L417.886 30.7789H412.738L403.3 53.6809ZM412.045 44.8039L415.246 36.7189L418.447 44.8039H412.045Z" fill="white"/>
<path fill-rule="evenodd" clip-rule="evenodd" d="M0.474609 43.0428V41.0428C7.9089 41.0428 13.8856 35.1954 13.8856 28.0427H15.8856C15.8856 35.1954 21.8626 41.0428 29.2969 41.0428V43.0428C21.8625 43.0428 15.8856 48.89 15.8856 56.0427H13.8856C13.8856 48.89 7.90893 43.0428 0.474609 43.0428ZM14.8856 50.7133C16.4399 46.7325 19.6844 43.5706 23.7549 42.0428C19.6844 40.5149 16.4399 37.3529 14.8856 33.3721C13.3314 37.3529 10.087 40.5149 6.01653 42.0428C10.087 43.5706 13.3314 46.7325 14.8856 50.7133Z" fill="white"/>
<path fill-rule="evenodd" clip-rule="evenodd" d="M0.474609 71.0428V69.0428C7.9089 69.0428 13.8856 63.1954 13.8856 56.0427H15.8856C15.8856 63.1954 21.8626 69.0428 29.2969 69.0428V71.0428C21.8625 71.0428 15.8856 76.89 15.8856 84.0427H13.8856C13.8856 76.89 7.90893 71.0428 0.474609 71.0428ZM14.8856 78.7133C16.4399 74.7325 19.6844 71.5706 23.7549 70.0428C19.6844 68.5149 16.4399 65.3529 14.8856 61.3721C13.3314 65.3529 10.087 68.5149 6.01653 70.0428C10.087 71.5706 13.3314 74.7325 14.8856 78.7133Z" fill="white"/>
<path fill-rule="evenodd" clip-rule="evenodd" d="M53.9092 43.9029V41.9029C61.5473 41.9029 67.6174 36.1461 67.6174 29.1895H69.6174C69.6174 36.1461 75.6878 41.9029 83.326 41.9029V43.9029C75.6878 43.9029 69.6174 49.6595 69.6174 56.6161H67.6174C67.6174 49.6595 61.5473 43.9029 53.9092 43.9029ZM68.6175 51.4322C70.1903 47.515 73.4933 44.4118 77.6275 42.9029C73.4933 41.394 70.1903 38.2906 68.6175 34.3734C67.0447 38.2906 63.7417 41.394 59.6076 42.9029C63.7417 44.4118 67.0447 47.5151 68.6175 51.4322Z" fill="white"/>
<path fill-rule="evenodd" clip-rule="evenodd" d="M53.9092 71.3296V69.3296C61.5473 69.3296 67.6174 63.5728 67.6174 56.6161H69.6174C69.6174 63.5728 75.6878 69.3296 83.326 69.3296V71.3296C75.6878 71.3296 69.6174 77.0861 69.6174 84.0427H67.6174C67.6174 77.0861 61.5473 71.3296 53.9092 71.3296ZM68.6175 78.8589C70.1903 74.9417 73.4933 71.8384 77.6275 70.3296C73.4933 68.8206 70.1903 65.7173 68.6175 61.8C67.0447 65.7173 63.7417 68.8206 59.6076 70.3296C63.7417 71.8384 67.0447 74.9417 68.6175 78.8589Z" fill="white"/>
<path d="M68.2478 0.319031L55.0712 5.15443L41.9005 0.319031L28.7 5.15443L15.5115 0.319031L0.474609 5.87584V25.3248L15.5115 30.7803L28.7 26.0105L36.4033 28.7889L26.8219 32.2888V51.7377L36.4868 55.2376L26.8935 58.7494V78.1923L41.9005 83.779L56.9553 78.3474V58.8984L47.2845 55.3687L56.9553 51.8868V32.4378L47.2845 28.9201L54.9937 26.1417L68.1643 30.9115L83.3264 25.301V5.85204L68.2478 0.319031ZM41.1791 57.0382L41.9124 57.2707L44.5776 56.2989L55.0891 60.1505L41.9124 64.9978L28.7239 60.1744L39.1519 56.3168L41.1791 57.0382ZM52.8234 32.8254L55.0473 33.6422L41.9303 38.4776L28.7298 33.6601L39.1698 29.8084L41.823 30.7684L44.4702 29.7965L52.8234 32.8254ZM68.2478 11.9574L55.0712 7.11007L41.9124 11.9276L28.712 7.11007L15.5234 11.9276L2.35271 7.11007L15.5234 2.28661L28.712 7.11007L41.9124 2.28661L55.101 7.11007L68.2776 2.28661L81.4602 7.11007L68.2478 11.9574Z" fill="white"/>
</svg>
