<svg width="5000" height="15004" fill="none" xmlns="http://www.w3.org/2000/svg">
    <path fill="#1E1E1E" d="M0 0h5000v15004H0z"/>
    <mask id="a" style="mask-type:alpha" maskUnits="userSpaceOnUse" x="0" y="0" width="5000" height="15004">
        <path fill="#fff" d="M0 0h5000v15004H0z"/>
    </mask>
    <g mask="url(#a)">
        <path fill="#F2FFF6" d="M-228-124h5358v15265H-228z"/>
        <path fill="#40e0b8" d="M4406.43-55 6124.051 74.149l-1132.868 15066.67-1717.622-129.15z"/>
        <path fill="#3cb697" d="m3257.18 379.366 334.335 7.587-331.918 14626.334-334.335-7.587z"/>
        <path fill-rule="evenodd" clip-rule="evenodd"
              d="M3595 375h-338v2.266L2157.12 15005.3l340.74 25.6L3595.25 436.098l.06.034 4.52-60.132h.02v-.201l.01-.118-.01.003V375H3595z"
              fill="#99F3CE"/>
        <path fill="#40e0b8" d="m4065.44-26.636 340.748 25.621-1130.17 15030.77-340.747-25.62z"/>
    </g>
</svg>